<?xml version="1.0" standalone="no"?>
<!DOCTYPE svg PUBLIC "-//W3C//DTD SVG 20010904//EN"
 "http://www.w3.org/TR/2001/REC-SVG-20010904/DTD/svg10.dtd">
<svg version="1.0" xmlns="http://www.w3.org/2000/svg"
 width="1280.000000pt" height="1280.000000pt" viewBox="0 0 1280.000000 1280.000000"
 preserveAspectRatio="xMidYMid meet">
<metadata>
Created by potrace 1.11, written by Peter Selinger 2001-2013
</metadata>
<g transform="translate(0.000000,1280.000000) scale(0.100000,-0.100000)"
fill="#000000" stroke="none">
<path d="M6088 12795 c-2 -2 -55 -6 -118 -10 -63 -3 -128 -8 -145 -10 -16 -2
-61 -7 -100 -11 -102 -11 -105 -11 -165 -18 -30 -4 -64 -9 -75 -11 -11 -3 -38
-7 -60 -10 -22 -3 -65 -10 -95 -15 -30 -5 -72 -12 -94 -16 -21 -3 -48 -8 -60
-10 -11 -3 -32 -7 -46 -10 -14 -3 -29 -7 -35 -8 -5 -2 -28 -6 -50 -10 -22 -5
-67 -15 -100 -23 -58 -14 -73 -18 -113 -27 -162 -36 -598 -176 -772 -248 -14
-5 -27 -10 -30 -10 -3 0 -14 -5 -25 -11 -11 -6 -24 -12 -30 -13 -5 -2 -46 -19
-90 -39 -44 -20 -89 -39 -100 -42 -24 -8 -458 -224 -465 -232 -3 -4 -16 -12
-30 -19 -14 -6 -32 -16 -40 -21 -8 -5 -44 -26 -80 -47 -102 -59 -335 -207
-338 -216 -2 -4 -8 -8 -13 -8 -7 0 -220 -150 -274 -192 -361 -285 -552 -457
-815 -734 -128 -135 -342 -389 -445 -529 -16 -22 -33 -44 -38 -50 -79 -97
-340 -501 -427 -661 -138 -253 -265 -510 -285 -575 -4 -13 -11 -29 -16 -34 -7
-10 -42 -94 -96 -235 -69 -181 -203 -595 -217 -673 -2 -12 -9 -42 -16 -67 -7
-25 -14 -53 -16 -62 -2 -10 -6 -26 -8 -35 -14 -55 -67 -318 -76 -378 -6 -38
-13 -81 -15 -95 -2 -14 -7 -45 -10 -70 -3 -25 -7 -58 -10 -75 -10 -65 -16
-113 -21 -170 -3 -33 -7 -78 -9 -100 -26 -222 -26 -914 -1 -1125 3 -19 7 -66
11 -105 3 -38 8 -86 10 -105 9 -74 15 -116 19 -140 5 -26 12 -74 21 -137 7
-43 21 -119 40 -213 8 -36 17 -81 20 -100 29 -167 155 -597 249 -855 37 -100
41 -109 69 -175 8 -19 32 -75 52 -125 64 -156 189 -412 271 -556 24 -42 44
-78 44 -82 0 -8 176 -292 253 -407 325 -487 744 -953 1202 -1340 28 -23 61
-51 74 -62 50 -42 310 -238 391 -293 338 -235 710 -444 1055 -594 55 -24 123
-54 150 -66 28 -12 66 -28 85 -35 19 -7 49 -18 65 -25 17 -6 46 -18 65 -25 19
-6 44 -16 55 -21 38 -16 357 -119 383 -124 15 -2 38 -9 52 -14 89 -34 497
-124 704 -155 21 -4 41 -8 45 -10 3 -2 33 -6 66 -10 33 -3 71 -8 85 -11 14 -3
45 -7 70 -10 25 -2 69 -6 98 -9 238 -26 329 -30 662 -30 292 0 441 5 580 19
30 3 75 8 100 10 93 9 156 16 175 20 11 2 43 7 70 10 28 3 59 8 71 10 12 3 39
7 60 10 21 4 48 8 59 10 158 30 176 33 200 39 11 2 72 16 135 30 63 14 180 44
260 66 80 23 152 42 161 45 45 10 341 114 464 162 377 148 781 353 1090 551
140 90 210 137 229 155 11 9 23 17 27 17 4 0 14 6 21 13 7 7 26 21 43 31 16
11 34 23 40 28 5 5 46 36 90 69 44 33 89 68 100 77 11 9 43 35 70 57 204 162
450 394 660 620 120 129 107 115 175 195 30 36 57 67 60 70 42 42 307 396 372
499 9 14 21 31 25 36 15 17 158 246 215 345 100 172 234 435 311 611 49 109
89 205 91 214 1 6 10 27 19 49 9 21 17 42 17 47 0 5 7 25 16 46 9 21 21 47 25
58 13 31 112 337 129 400 5 17 16 57 25 90 16 58 20 75 29 112 2 10 11 45 20
78 16 63 42 181 51 237 3 18 8 41 11 51 3 10 7 31 9 47 2 16 9 55 14 87 6 32
13 76 16 98 3 22 8 49 10 60 2 11 7 47 10 80 4 33 8 70 10 81 6 38 16 127 20
189 3 33 8 103 12 155 9 119 9 716 0 830 -17 213 -18 225 -32 340 -9 77 -15
124 -20 150 -3 14 -7 41 -9 60 -9 64 -17 115 -28 170 -6 30 -12 64 -14 75 -1
11 -9 50 -17 86 -9 36 -17 79 -20 95 -24 142 -150 572 -241 819 -35 95 -43
115 -66 168 -5 12 -30 72 -56 132 -77 184 -187 411 -270 556 -24 42 -44 78
-44 82 0 25 -376 598 -448 682 -10 11 -28 36 -41 55 -13 19 -29 40 -35 45 -6
6 -30 35 -53 65 -169 222 -504 573 -768 805 -115 101 -277 235 -325 268 -25
17 -56 41 -70 54 -14 13 -28 23 -32 23 -3 0 -13 6 -20 14 -32 31 -478 326
-528 349 -8 4 -33 18 -55 31 -40 25 -58 35 -195 109 -115 62 -262 134 -420
205 -134 60 -388 157 -555 212 -105 34 -197 65 -205 68 -8 3 -24 7 -35 9 -11
2 -31 7 -45 13 -55 20 -443 112 -525 124 -11 2 -45 8 -75 14 -30 6 -75 14
-100 17 -24 4 -47 8 -50 10 -3 2 -33 6 -67 10 -34 3 -71 8 -82 10 -11 2 -47 6
-80 10 -33 3 -69 8 -81 10 -11 2 -63 7 -115 10 -51 4 -106 9 -122 11 -31 5
-750 14 -755 9z"/>
</g>
</svg>
